<svg xmlns="http://www.w3.org/2000/svg" width="512" height="512" viewBox="0 0 512 512">
  <defs>
    <filter id="softShadow" x="-30%" y="-30%" width="160%" height="160%">
      <feDropShadow dx="0" dy="14" stdDeviation="18" flood-color="#0f172a" flood-opacity=".22"/>
    </filter>
    <filter id="innerGlow" x="-20%" y="-20%" width="140%" height="140%">
      <feDropShadow dx="0" dy="0" stdDeviation="7" flood-color="#ffffff" flood-opacity=".55"/>
    </filter>
    <radialGradient id="centerWhite" cx="35%" cy="25%" r="80%">
      <stop offset="0%" stop-color="#ffffff"/>
      <stop offset="78%" stop-color="#f8fafc"/>
      <stop offset="100%" stop-color="#e5e7eb"/>
    </radialGradient>
    <radialGradient id="centerBlack" cx="35%" cy="25%" r="85%">
      <stop offset="0%" stop-color="#202938"/>
      <stop offset="100%" stop-color="#090d15"/>
    </radialGradient>
  </defs>
  <rect width="512" height="512" rx="96" fill="#ffffff"/>
  <g filter="url(#softShadow)">
    <circle cx="256" cy="256" r="232" fill="#ffffff"/>
    <g>
      <path d="M256.0,30.0 A226,226 0 0,1 369.0,60.3 L319.0,146.9 A126,126 0 0,0 256.0,130.0 Z" fill="#ff1744"/>
<path d="M369.0,60.3 A226,226 0 0,1 451.7,143.0 L365.1,193.0 A126,126 0 0,0 319.0,146.9 Z" fill="#ff3d00"/>
<path d="M451.7,143.0 A226,226 0 0,1 482.0,256.0 L382.0,256.0 A126,126 0 0,0 365.1,193.0 Z" fill="#ff7a00"/>
<path d="M482.0,256.0 A226,226 0 0,1 451.7,369.0 L365.1,319.0 A126,126 0 0,0 382.0,256.0 Z" fill="#ffb300"/>
<path d="M451.7,369.0 A226,226 0 0,1 369.0,451.7 L319.0,365.1 A126,126 0 0,0 365.1,319.0 Z" fill="#ffe600"/>
<path d="M369.0,451.7 A226,226 0 0,1 256.0,482.0 L256.0,382.0 A126,126 0 0,0 319.0,365.1 Z" fill="#a7e000"/>
<path d="M256.0,482.0 A226,226 0 0,1 143.0,451.7 L193.0,365.1 A126,126 0 0,0 256.0,382.0 Z" fill="#22c55e"/>
<path d="M143.0,451.7 A226,226 0 0,1 60.3,369.0 L146.9,319.0 A126,126 0 0,0 193.0,365.1 Z" fill="#00c2a8"/>
<path d="M60.3,369.0 A226,226 0 0,1 30.0,256.0 L130.0,256.0 A126,126 0 0,0 146.9,319.0 Z" fill="#0ea5e9"/>
<path d="M30.0,256.0 A226,226 0 0,1 60.3,143.0 L146.9,193.0 A126,126 0 0,0 130.0,256.0 Z" fill="#2563eb"/>
<path d="M60.3,143.0 A226,226 0 0,1 143.0,60.3 L193.0,146.9 A126,126 0 0,0 146.9,193.0 Z" fill="#7c3aed"/>
<path d="M143.0,60.3 A226,226 0 0,1 256.0,30.0 L256.0,130.0 A126,126 0 0,0 193.0,146.9 Z" fill="#db00ff"/>
    </g>
    <circle cx="256" cy="256" r="128" fill="#ffffff" opacity=".92"/>
    <circle cx="256" cy="256" r="116" fill="#ffffff"/>
    <g filter="url(#innerGlow)">
      <circle cx="256" cy="256" r="112" fill="url(#centerWhite)"/>
      <path d="M256,144 A112,112 0 0 0 256,368 A56,56 0 0 0 256,256 A56,56 0 0 1 256,144 Z" fill="url(#centerBlack)"/>
      <path d="M256,144 A56,56 0 0 1 256,256 A56,56 0 0 0 256,368 A112,112 0 0 0 256,144 Z" fill="url(#centerWhite)" opacity=".97"/>
      <circle cx="256" cy="200" r="23" fill="url(#centerWhite)"/>
      <circle cx="256" cy="312" r="23" fill="url(#centerBlack)"/>
      <text x="256" y="215" text-anchor="middle" font-family="Arial, Helvetica, sans-serif" font-size="58" font-weight="900" fill="#ffffff" stroke="#111827" stroke-width="2" paint-order="stroke">M</text>
      <text x="256" y="329" text-anchor="middle" font-family="Arial, Helvetica, sans-serif" font-size="58" font-weight="900" fill="#111827">C</text>
    </g>
  </g>
</svg>