<svg xmlns="http://www.w3.org/2000/svg" width="512" height="512" viewBox="0 0 512 512">
  <defs>
    <linearGradient id="bg" x1="74" y1="74" x2="438" y2="438" gradientUnits="userSpaceOnUse">
      <stop offset="0" stop-color="#f40083"/>
      <stop offset=".16" stop-color="#ff1744"/>
      <stop offset=".32" stop-color="#ff7a00"/>
      <stop offset=".47" stop-color="#ffe600"/>
      <stop offset=".63" stop-color="#32d74b"/>
      <stop offset=".78" stop-color="#00bcd4"/>
      <stop offset=".9" stop-color="#0066ff"/>
      <stop offset="1" stop-color="#7c3aed"/>
    </linearGradient>
    <radialGradient id="blackHalf" cx="36%" cy="22%" r="88%">
      <stop offset="0" stop-color="#262c39"/>
      <stop offset="1" stop-color="#05070d"/>
    </radialGradient>
    <radialGradient id="whiteHalf" cx="34%" cy="18%" r="90%">
      <stop offset="0" stop-color="#ffffff"/>
      <stop offset=".72" stop-color="#ffffff"/>
      <stop offset="1" stop-color="#eef0f4"/>
    </radialGradient>
    <filter id="shadow" x="-20%" y="-20%" width="140%" height="140%">
      <feDropShadow dx="0" dy="16" stdDeviation="16" flood-color="#0f172a" flood-opacity=".22"/>
    </filter>
    <filter id="letterShadow" x="-30%" y="-30%" width="160%" height="160%">
      <feDropShadow dx="0" dy="4" stdDeviation="4" flood-color="#000" flood-opacity=".24"/>
    </filter>
  </defs>

  <rect x="40" y="40" width="432" height="432" rx="92" fill="url(#bg)" filter="url(#shadow)"/>

  <g filter="url(#shadow)">
    <circle cx="256" cy="256" r="156" fill="#ffffff"/>
    <path d="M256 100a156 156 0 0 0 0 312c-64 0-76-82-22-122 25-18 66-19 66-76 0-62-44-114-44-114z" fill="url(#blackHalf)"/>
    <path d="M256 100a156 156 0 0 1 0 312c64 0 76-82 22-122-25-18-66-19-66-76 0-62 44-114 44-114z" fill="url(#whiteHalf)"/>
    <path d="M256 100a156 156 0 0 0 0 312" fill="none" stroke="#ffffff" stroke-width="10" stroke-linecap="round"/>
    <path d="M256 100a156 156 0 0 1 0 312" fill="none" stroke="#ffffff" stroke-width="10" stroke-linecap="round" opacity=".96"/>
    <path d="M224 282c20-18 76-17 76-75" fill="none" stroke="#ffffff" stroke-width="8" stroke-linecap="round" opacity=".92"/>
    <path d="M288 230c-20 18-76 17-76 75" fill="none" stroke="#f8fafc" stroke-width="8" stroke-linecap="round" opacity=".75"/>
    <text x="214" y="218" text-anchor="middle" font-family="Arial, Helvetica, sans-serif" font-size="74" font-weight="800" fill="#ffffff" filter="url(#letterShadow)">M</text>
    <text x="302" y="328" text-anchor="middle" font-family="Arial, Helvetica, sans-serif" font-size="74" font-weight="800" fill="#05070d" filter="url(#letterShadow)">C</text>
  </g>
</svg>
