<svg xmlns="http://www.w3.org/2000/svg" width="512" height="512" viewBox="0 0 512 512">
  <defs>
    <linearGradient id="bg" x1="76" y1="78" x2="438" y2="438" gradientUnits="userSpaceOnUse">
      <stop offset="0" stop-color="#f6008a"/>
      <stop offset=".28" stop-color="#ff6a00"/>
      <stop offset=".48" stop-color="#ffe23a"/>
      <stop offset=".70" stop-color="#23d85a"/>
      <stop offset=".86" stop-color="#0877ff"/>
      <stop offset="1" stop-color="#7b2cff"/>
    </linearGradient>
    <radialGradient id="black" cx="35%" cy="24%" r="88%">
      <stop offset="0" stop-color="#202430"/>
      <stop offset="1" stop-color="#05070d"/>
    </radialGradient>
    <filter id="s" x="-20%" y="-20%" width="140%" height="140%">
      <feDropShadow dx="0" dy="10" stdDeviation="10" flood-color="#000" flood-opacity=".24"/>
    </filter>
  </defs>
  <rect width="512" height="512" rx="112" fill="url(#bg)"/>
  <g filter="url(#s)">
    <circle cx="242" cy="242" r="158" fill="#fff"/>
    <path d="M242 84a158 158 0 0 0 0 316c-67 0-79-84-23-125 24-18 67-19 67-78 0-62-44-113-44-113z" fill="url(#black)"/>
    <path d="M242 84a158 158 0 0 1 0 316c67 0 79-84 23-125-24-18-67-19-67-78 0-62 44-113 44-113z" fill="#fff"/>
    <circle cx="242" cy="242" r="158" fill="none" stroke="#fff" stroke-width="8"/>
    <text x="188" y="217" font-family="Arial, Helvetica, sans-serif" font-size="82" font-weight="800" fill="#fff">M</text>
    <text x="290" y="332" font-family="Arial, Helvetica, sans-serif" font-size="82" font-weight="800" fill="#05070d">C</text>
  </g>
</svg>
